#tb 0: 1/25
#media_type 0: video
#codec_id 0: rawvideo
#dimensions 0: 720x576
#sar 0: 16/15
0,          9,          9,        1,   622080, 0xd435648a
0,         10,         10,        1,   622080, 0x62085455
0,         11,         11,        1,   622080, 0x60f943a0
0,         12,         12,        1,   622080, 0x5396f14a
0,         13,         13,        1,   622080, 0x2df2ea4c
0,         14,         14,        1,   622080, 0x706af6eb
0,         15,         15,        1,   622080, 0x38f6f1c2
0,         16,         16,        1,   622080, 0x6259b7a0
0,         17,         17,        1,   622080, 0x056994e9
0,         18,         18,        1,   622080, 0x34be703b
0,         19,         19,        1,   622080, 0x408de27c
0,         20,         20,        1,   622080, 0xdff42f6d
0,         21,         21,        1,   622080, 0x4c39202f
0,         22,         22,        1,   622080, 0x169beb1e
0,         23,         23,        1,   622080, 0xf5776ac0
0,         24,         24,        1,   622080, 0xc66befc3
0,         25,         25,        1,   622080, 0xa9ac8298
0,         26,         26,        1,   622080, 0xbbfd898f
0,         27,         27,        1,   622080, 0x86e3b9af
0,         28,         28,        1,   622080, 0xeeb31455
0,         29,         29,        1,   622080, 0x1819236d
0,         30,         30,        1,   622080, 0x414b01b0
0,         31,         31,        1,   622080, 0x77e4b4f7
0,         32,         32,        1,   622080, 0xf5683a8c
0,         33,         33,        1,   622080, 0xe8455a05
0,         34,         34,        1,   622080, 0x2a03160d
0,         35,         35,        1,   622080, 0x9135bebc
0,         36,         36,        1,   622080, 0x9c1e1cf0
0,         37,         37,        1,   622080, 0xd84e67c9
0,         38,         38,        1,   622080, 0xfa864e1d
